<svg width="32" height="32" viewBox="0 0 32 32" fill="none" xmlns="http://www.w3.org/2000/svg">
<path d="M5.87501 4.2285V9.10938H13.629V4.2285H5.87501ZM1.24026 7.32225V12.0644L7.35151 18.1914H16.379L16.3789 7.32231H14.7969V10.2774H4.70701V7.32219L1.24026 7.32225ZM17.5469 8.50188V14.0898H23.7344L20.8203 17.0117H17.5469V18.1797H21.3047L21.4766 18.0078L25.1406 14.3341L25.3106 14.1641V14.0898H25.332V8.50188H17.5469ZM26.5 9.65044V12.8848H30.7831V9.65044H26.5ZM10.3691 19.3594C10.3743 19.7592 10.4596 20.154 10.6199 20.5203C10.7803 20.8867 11.0125 21.2171 11.3028 21.4922L7.23439 26.8731C5.61989 27.0256 4.27064 28.1424 3.67376 29.6992H11.5528C11.0346 28.3476 9.9487 27.3278 8.61526 26.9824L10.0606 25.0722H16.3925L17.8359 26.9824C16.5026 27.3278 15.4184 28.3476 14.9003 29.6991H22.7773C22.1806 28.1424 20.8329 27.0256 19.2187 26.8729L15.2637 21.6443C15.9293 21.1026 16.3556 20.2812 16.3691 19.3592H10.3691L10.3691 19.3594ZM12.295 22.1191C12.6287 22.2473 12.9902 22.3164 13.3691 22.3164C13.663 22.3164 13.9464 22.274 14.2147 22.1953L15.5078 23.9043H10.9453L12.2949 22.1191L12.295 22.1191Z" fill="white"/>
</svg>
